<!-- <svg xmlns="http://www.w3.org/2000/svg" width="16" height="16" fill="currentColor" class="bi bi-chat-square-quote" viewBox="0 0 16 16">
  <path d="M14 1a1 1 0 0 1 1 1v8a1 1 0 0 1-1 1h-2.5a2 2 0 0 0-1.6.8L8 14.333 6.1 11.8a2 2 0 0 0-1.6-.8H2a1 1 0 0 1-1-1V2a1 1 0 0 1 1-1h12zM2 0a2 2 0 0 0-2 2v8a2 2 0 0 0 2 2h2.5a1 1 0 0 1 .8.4l1.9 2.533a1 1 0 0 0 1.6 0l1.9-2.533a1 1 0 0 1 .8-.4H14a2 2 0 0 0 2-2V2a2 2 0 0 0-2-2H2z"/>
  <path d="M7.066 4.76A1.665 1.665 0 0 0 4 5.668a1.667 1.667 0 0 0 2.561 1.406c-.131.389-.375.804-.777 1.22a.417.417 0 1 0 .6.58c1.486-1.54 1.293-3.214.682-4.112zm4 0A1.665 1.665 0 0 0 8 5.668a1.667 1.667 0 0 0 2.561 1.406c-.131.389-.375.804-.777 1.22a.417.417 0 1 0 .6.58c1.486-1.54 1.293-3.214.682-4.112z"/>
</svg> -->

<svg xmlns="http://www.w3.org/2000/svg" width="16" height="16" fill="currentColor" class="bi bi-quote" viewBox="0 0 16 16">
  <path d="M12 12a1 1 0 0 0 1-1V8.558a1 1 0 0 0-1-1h-1.388c0-.351.021-.703.062-1.054.062-.372.166-.703.31-.992.145-.29.331-.517.559-.683.227-.186.516-.279.868-.279V3c-.579 0-1.085.124-1.52.372a3.322 3.322 0 0 0-1.085.992 4.92 4.92 0 0 0-.62 1.458A7.712 7.712 0 0 0 9 7.558V11a1 1 0 0 0 1 1h2Zm-6 0a1 1 0 0 0 1-1V8.558a1 1 0 0 0-1-1H4.612c0-.351.021-.703.062-1.054.062-.372.166-.703.31-.992.145-.29.331-.517.559-.683.227-.186.516-.279.868-.279V3c-.579 0-1.085.124-1.52.372a3.322 3.322 0 0 0-1.085.992 4.92 4.92 0 0 0-.62 1.458A7.712 7.712 0 0 0 3 7.558V11a1 1 0 0 0 1 1h2Z"/>
</svg>