<?xml version="1.0" encoding="utf-8"?>
<!-- Generator: Adobe Illustrator 24.3.0, SVG Export Plug-In . SVG Version: 6.00 Build 0)  -->
<svg version="1.1" id="Layer_1" xmlns="http://www.w3.org/2000/svg" xmlns:xlink="http://www.w3.org/1999/xlink" x="0px" y="0px"
	 viewBox="0 0 16 16" style="enable-background:new 0 0 16 16;" xml:space="preserve">
<style type="text/css">
	.st0{fill-rule:evenodd;clip-rule:evenodd;fill:#FFFFFF;}
</style>
<path class="st0" d="M4.6,4.6c0-1.9,1.5-3.4,3.4-3.4c1.9,0,3.4,1.5,3.4,3.4c0,1.7-1.3,3.1-3,3.4v4.7c0,0.2-0.2,0.4-0.4,0.4
	c-0.2,0-0.4-0.2-0.4-0.4V8C5.9,7.8,4.6,6.3,4.6,4.6L4.6,4.6z M6.7,11.9c0,0.2-0.1,0.4-0.3,0.5c-0.6,0.1-1.1,0.2-1.4,0.4
	c-0.1,0.1-0.2,0.1-0.3,0.2c0,0,0,0,0,0.1v0l0,0c0,0,0,0,0,0c0,0,0.1,0.1,0.1,0.1c0.1,0.1,0.4,0.2,0.7,0.3C6.1,13.8,7,13.9,8,13.9
	s1.9-0.1,2.6-0.4c0.3-0.1,0.5-0.2,0.7-0.3c0,0,0.1-0.1,0.1-0.1c0,0,0,0,0,0l0,0v0c0,0,0-0.1,0-0.1c-0.1-0.1-0.2-0.2-0.3-0.2
	c-0.3-0.2-0.8-0.3-1.4-0.4c-0.2,0-0.4-0.2-0.4-0.5c0-0.2,0.2-0.4,0.5-0.4c0,0,0,0,0,0c0.7,0.1,1.2,0.3,1.7,0.5
	c0.4,0.2,0.8,0.5,0.8,1.1c0,0.4-0.2,0.6-0.5,0.8c-0.2,0.2-0.6,0.3-0.9,0.5c-0.7,0.2-1.7,0.4-2.8,0.4s-2.1-0.1-2.8-0.4
	c-0.4-0.1-0.7-0.3-0.9-0.5c-0.2-0.2-0.5-0.5-0.5-0.8c0-0.5,0.4-0.8,0.8-1.1c0.4-0.2,1-0.4,1.7-0.5C6.5,11.5,6.7,11.6,6.7,11.9z"/>
</svg>
