<svg id="Layer_1" data-name="Layer 1" xmlns="http://www.w3.org/2000/svg" viewBox="0 0 18.73 18.73"><defs><style>.cls-1{fill:#fff;}</style></defs><rect x="4.86" y="2.43" width="13.37" height="10.34"/><path class="cls-1" d="M17.73,2.93v9.33H5.36V2.93H17.73m.7-1H4.66a.3.3,0,0,0-.3.3V13a.3.3,0,0,0,.3.3H18.43a.29.29,0,0,0,.3-.3V2.23a.29.29,0,0,0-.3-.3Z"/><rect x="2.68" y="4.39" width="13.37" height="10.34"/><path class="cls-1" d="M15.55,4.89v9.34H3.18V4.89H15.55m.7-1H2.48a.3.3,0,0,0-.3.3V14.93a.31.31,0,0,0,.3.3H16.25a.3.3,0,0,0,.3-.3V4.19a.29.29,0,0,0-.3-.3Z"/><rect x="0.5" y="6.35" width="13.37" height="10.34"/><path class="cls-1" d="M13.37,6.85v9.34H1V6.85H13.37m.7-1H.3a.3.3,0,0,0-.3.3V16.89a.29.29,0,0,0,.3.3H14.07a.29.29,0,0,0,.3-.3V6.15a.3.3,0,0,0-.3-.3Z"/></svg>