<svg id="Layer_1" data-name="Layer 1" xmlns="http://www.w3.org/2000/svg" viewBox="0 0 16 16"><defs><style>.cls-1{fill:#fff;}</style></defs><path class="cls-1" d="M15.11,8.89H.89a.89.89,0,0,1,0-1.78H15.11a.89.89,0,1,1,0,1.78Z"/><path class="cls-1" d="M1.84,12.44a.88.88,0,0,1-.44-1.65L13.71,3.67A.9.9,0,0,1,14.93,4a.88.88,0,0,1-.33,1.21L2.29,12.33A.91.91,0,0,1,1.84,12.44Z"/><path class="cls-1" d="M4.44,15.05A.88.88,0,0,1,4,14.93a.9.9,0,0,1-.33-1.22L10.79,1.4A.88.88,0,0,1,12,1.07a.9.9,0,0,1,.33,1.22L5.21,14.6A.87.87,0,0,1,4.44,15.05Z"/><path class="cls-1" d="M8,16a.89.89,0,0,1-.89-.89V.89a.89.89,0,0,1,1.78,0V15.11A.89.89,0,0,1,8,16Z"/><path class="cls-1" d="M11.56,15.05a.87.87,0,0,1-.77-.45L3.67,2.29A.9.9,0,0,1,4,1.07a.89.89,0,0,1,1.21.33l7.12,12.31A.9.9,0,0,1,12,14.93.88.88,0,0,1,11.56,15.05Z"/><path class="cls-1" d="M14.16,12.44a.91.91,0,0,1-.45-.11L1.4,5.21A.88.88,0,0,1,1.07,4a.9.9,0,0,1,1.22-.33L14.6,10.79a.88.88,0,0,1-.44,1.65Z"/></svg>