<?xml version="1.0" encoding="utf-8"?>
<!-- Generator: Adobe Illustrator 24.3.0, SVG Export Plug-In . SVG Version: 6.00 Build 0)  -->
<svg version="1.1" id="Layer_1" xmlns="http://www.w3.org/2000/svg" xmlns:xlink="http://www.w3.org/1999/xlink" x="0px" y="0px"
	 viewBox="0 0 16 16" style="enable-background:new 0 0 16 16;" xml:space="preserve">
<path d="M2.8,2.6l1.5-1.1L3.8,5.2H2.1l0.1-3.7h11.7l0.1,3.7h-1.6l-0.5-3.7l1.4,1.1H2.8z M8.4,13.2l3,0.3v1.1H4.6v-1.1l3-0.3
	L8.4,13.2z M6.3,7.6c0-2,0-4.1-0.1-6.2h3.5c-0.1,2-0.1,4.1-0.1,6.2v0.7c0,2.1,0,4.1,0.1,6.2H6.3c0.1-2,0.1-4.1,0.1-6.2V7.6z"/>
</svg>
