<?xml version="1.0" encoding="utf-8"?>
<!-- Generator: Adobe Illustrator 24.3.0, SVG Export Plug-In . SVG Version: 6.00 Build 0)  -->
<svg version="1.0" id="Layer_1" xmlns="http://www.w3.org/2000/svg" xmlns:xlink="http://www.w3.org/1999/xlink" x="0px" y="0px"
	 viewBox="0 0 16 16" style="enable-background:new 0 0 16 16;" xml:space="preserve">
<style type="text/css">
	.st0{opacity:0.6;}
	.st1{opacity:0.6;fill:#FFFFFF;}
	.st2{fill:#FFFFFF;}
	.st3{opacity:0.6;fill-rule:evenodd;clip-rule:evenodd;fill:#FFFFFF;}
</style>
<g class="st0">
	<path class="st2" d="M4.3,14.1V15c0,0.1,0,0.2,0,0.3c0,0.1-0.1,0.1-0.1,0.2C4,15.5,4,15.5,3.9,15.6c-0.3,0.1-0.5,0.3-0.8,0.3
		C2.8,16,2.6,16,2.3,16c-0.3,0-0.7-0.1-0.9-0.2c-0.3-0.1-0.5-0.3-0.7-0.5c-0.2-0.2-0.4-0.4-0.5-0.7C0.1,14.4,0,14,0,13.7
		c0-0.3,0.1-0.7,0.2-1c0.1-0.3,0.3-0.5,0.5-0.7c0.2-0.2,0.4-0.4,0.7-0.5c0.3-0.1,0.6-0.2,1-0.2c0.3,0,0.6,0,0.8,0.1
		c0.2,0.1,0.4,0.2,0.6,0.3c0.1,0.1,0.3,0.3,0.3,0.4c0.1,0.1,0.1,0.3,0.1,0.4c0,0.1,0,0.2-0.1,0.3C3.9,12.9,3.8,13,3.7,13
		c-0.1,0-0.1,0-0.2,0c-0.1,0-0.1-0.1-0.2-0.1c-0.1-0.2-0.2-0.3-0.3-0.4c-0.1-0.1-0.2-0.2-0.3-0.2c-0.1-0.1-0.3-0.1-0.5-0.1
		c-0.2,0-0.4,0-0.6,0.1s-0.3,0.2-0.4,0.3C1.2,12.6,1.1,12.8,1,13c-0.1,0.2-0.1,0.4-0.1,0.7c0,0.5,0.1,0.9,0.4,1.2
		c0.2,0.3,0.6,0.4,1,0.4c0.2,0,0.4,0,0.6-0.1c0.2-0.1,0.4-0.1,0.6-0.2v-0.7H2.7c-0.2,0-0.3,0-0.4-0.1c-0.1,0-0.1-0.1-0.1-0.3
		c0-0.1,0-0.2,0.1-0.2c0.1-0.1,0.2-0.1,0.3-0.1h1c0.1,0,0.2,0,0.3,0c0.1,0,0.2,0.1,0.2,0.1C4.2,13.8,4.3,14,4.3,14.1z"/>
	<path class="st2" d="M7.2,14.2H6.3v1.3c0,0.2,0,0.3-0.1,0.4C6.1,15.9,6,16,5.9,16c-0.1,0-0.2,0-0.3-0.1c-0.1-0.1-0.1-0.2-0.1-0.4
		V12c0-0.2,0-0.3,0.1-0.4c0.1-0.1,0.2-0.1,0.4-0.1h1.2c0.3,0,0.6,0,0.8,0.1c0.2,0.1,0.3,0.1,0.5,0.3c0.1,0.1,0.2,0.3,0.3,0.4
		c0.1,0.2,0.1,0.4,0.1,0.6c0,0.5-0.1,0.8-0.4,1C8.1,14.1,7.7,14.2,7.2,14.2z M6.9,12.1H6.3v1.4h0.6c0.2,0,0.4,0,0.5-0.1
		c0.1,0,0.3-0.1,0.3-0.2c0.1-0.1,0.1-0.2,0.1-0.4c0-0.2-0.1-0.4-0.2-0.5C7.6,12.2,7.3,12.1,6.9,12.1z"/>
	<path class="st2" d="M9.7,15.1l1-1.5l-0.8-1.3c-0.1-0.1-0.1-0.2-0.2-0.3c0-0.1-0.1-0.2-0.1-0.3c0-0.1,0-0.2,0.1-0.2
		c0.1-0.1,0.2-0.1,0.3-0.1c0.1,0,0.2,0,0.3,0.1c0.1,0.1,0.2,0.2,0.3,0.4l0.7,1.1l0.7-1.1c0.1-0.1,0.1-0.2,0.2-0.2
		c0-0.1,0.1-0.1,0.1-0.2c0,0,0.1-0.1,0.1-0.1c0,0,0.1,0,0.2,0c0.1,0,0.2,0,0.3,0.1c0.1,0.1,0.1,0.1,0.1,0.2c0,0.1-0.1,0.3-0.2,0.6
		l-0.9,1.3l0.9,1.5c0.1,0.1,0.1,0.2,0.2,0.3c0,0.1,0.1,0.2,0.1,0.2c0,0.1,0,0.1-0.1,0.2c0,0.1-0.1,0.1-0.1,0.1
		c-0.1,0-0.1,0.1-0.2,0.1c-0.1,0-0.2,0-0.2-0.1c-0.1,0-0.1-0.1-0.1-0.1c0-0.1-0.1-0.2-0.2-0.3l-0.8-1.2l-0.8,1.3
		c-0.1,0.1-0.1,0.2-0.1,0.2c0,0-0.1,0.1-0.1,0.1c0,0-0.1,0.1-0.1,0.1c-0.1,0-0.1,0-0.2,0c-0.1,0-0.2,0-0.3-0.1
		c-0.1-0.1-0.1-0.2-0.1-0.3C9.5,15.5,9.6,15.3,9.7,15.1z"/>
</g>
<path class="st3" d="M13.6,15c0.6,0,1.2-0.4,1.2-1V4.5h-2.4c-1,0-1.8-0.7-1.8-1.5V1H4.2C3.6,1,3.1,1.4,3.1,2v8.6H1.9V2
	c0-1.1,1.1-2,2.4-2h6.5L16,4.5V14c0,1.1-1.1,2-2.4,2"/>
</svg>
