<svg id="Layer_1" data-name="Layer 1" xmlns="http://www.w3.org/2000/svg" viewBox="0 0 16 16"><defs><style>.cls-1,.cls-3{fill:#fff;}.cls-1,.cls-2{opacity:0.6;}</style></defs><path class="cls-1" d="M8.39,7.82a.56.56,0,0,1-1.11,0V3.62L6,4.89a.56.56,0,0,1-.78,0,.56.56,0,0,1,0-.79L7.44,1.89a.56.56,0,0,1,.79,0h0L10.44,4.1a.56.56,0,0,1,0,.79.56.56,0,0,1-.78,0L8.39,3.62Z"/><path class="cls-1" d="M14.89,8.78v-6L9.6,0H3.13C1.83,0,.78.56.78,1.25V8.78C.78,9.48,1.83,10,3.13,10h9.41C13.84,10,14.89,9.48,14.89,8.78ZM9.6,1.88c0,.52.79.94,1.76.94h2.36v6c0,.35-.53.63-1.18.63H3.13C2.48,9.41,2,9.13,2,8.78V1.25C2,.91,2.48.63,3.13.63H9.6Z"/><g class="cls-2"><path class="cls-3" d="M5.5,13.9v.95a.8.8,0,0,1,0,.3.46.46,0,0,1-.13.21,1.06,1.06,0,0,1-.26.17,4.06,4.06,0,0,1-.86.36A3.72,3.72,0,0,1,3.3,16a2.91,2.91,0,0,1-1-.18,2,2,0,0,1-.8-.51A2.24,2.24,0,0,1,1,14.5a3.18,3.18,0,0,1-.17-1.06A3,3,0,0,1,1,12.38a2.09,2.09,0,0,1,.5-.81,2.23,2.23,0,0,1,.82-.51,3.08,3.08,0,0,1,1.09-.18,2.67,2.67,0,0,1,.88.13,1.88,1.88,0,0,1,.63.34,1.42,1.42,0,0,1,.36.43.86.86,0,0,1,.12.4.43.43,0,0,1-.14.32.48.48,0,0,1-.34.14.46.46,0,0,1-.2-.05.5.5,0,0,1-.17-.15A4.71,4.71,0,0,0,4.18,12a1.15,1.15,0,0,0-.34-.25,1.48,1.48,0,0,0-.56-.1,1.52,1.52,0,0,0-.62.12,1.35,1.35,0,0,0-.47.35,1.56,1.56,0,0,0-.29.56,2.38,2.38,0,0,0-.11.73,2,2,0,0,0,.4,1.34,1.38,1.38,0,0,0,1.12.47A2.27,2.27,0,0,0,4,15.13a3.27,3.27,0,0,0,.62-.26v-.8H3.81A.83.83,0,0,1,3.38,14a.3.3,0,0,1-.14-.28.38.38,0,0,1,.12-.28.48.48,0,0,1,.32-.11H4.82a1.79,1.79,0,0,1,.36,0,.42.42,0,0,1,.23.17A.64.64,0,0,1,5.5,13.9Z"/><path class="cls-3" d="M8.72,14H7.8v1.4a.61.61,0,0,1-.14.45.43.43,0,0,1-.35.16.48.48,0,0,1-.37-.15.7.7,0,0,1-.14-.46V11.58A.62.62,0,0,1,7,11.11.7.7,0,0,1,7.44,11H8.72a3.24,3.24,0,0,1,.88.09,1.42,1.42,0,0,1,.53.28,1.25,1.25,0,0,1,.33.48,1.62,1.62,0,0,1,.12.64,1.41,1.41,0,0,1-.47,1.15A2.11,2.11,0,0,1,8.72,14Zm-.24-2.27H7.8v1.51h.68a1.94,1.94,0,0,0,.59-.07.7.7,0,0,0,.37-.25.74.74,0,0,0,.12-.44.72.72,0,0,0-.19-.53A1.26,1.26,0,0,0,8.48,11.72Z"/><path class="cls-3" d="M11.58,15l1.11-1.62-.93-1.43a2.31,2.31,0,0,1-.2-.36.65.65,0,0,1-.07-.29.33.33,0,0,1,.13-.26.47.47,0,0,1,.31-.11.41.41,0,0,1,.32.12,3.82,3.82,0,0,1,.33.46l.74,1.2.79-1.2.17-.26.13-.18a.36.36,0,0,1,.15-.1.34.34,0,0,1,.18,0,.45.45,0,0,1,.31.11.37.37,0,0,1,.12.27,1.3,1.3,0,0,1-.26.62l-1,1.45L15,15a1.81,1.81,0,0,1,.21.36.65.65,0,0,1,.06.26.42.42,0,0,1-.05.22.5.5,0,0,1-.17.15.41.41,0,0,1-.23.06.43.43,0,0,1-.24-.06.46.46,0,0,1-.16-.15l-.23-.34-.87-1.37-.92,1.41c-.07.12-.13.19-.16.24a.63.63,0,0,1-.11.13A.4.4,0,0,1,12,16a.5.5,0,0,1-.51-.07.43.43,0,0,1-.12-.33A1.22,1.22,0,0,1,11.58,15Z"/></g></svg>