<svg id="Layer_1" data-name="Layer 1" xmlns="http://www.w3.org/2000/svg" viewBox="0 0 16 16"><defs><style>.cls-1,.cls-2{fill:#fff;}.cls-2{fill-rule:evenodd;}</style></defs><path class="cls-1" d="M4.25,14.11V15a.91.91,0,0,1,0,.27.44.44,0,0,1-.12.19,1.52,1.52,0,0,1-.23.16,4.15,4.15,0,0,1-.78.32,3.47,3.47,0,0,1-.82.1,2.75,2.75,0,0,1-.93-.16,2.07,2.07,0,0,1-.72-.46,2.11,2.11,0,0,1-.46-.73,2.93,2.93,0,0,1,0-1.91A1.88,1.88,0,0,1,.61,12a2,2,0,0,1,.73-.46,2.76,2.76,0,0,1,1-.16,2.45,2.45,0,0,1,.8.12,1.74,1.74,0,0,1,.56.3A1.32,1.32,0,0,1,4,12.2a.78.78,0,0,1,.11.36.41.41,0,0,1-.13.29.42.42,0,0,1-.3.12.41.41,0,0,1-.19-.05.37.37,0,0,1-.15-.13c-.11-.17-.21-.3-.28-.39a1.09,1.09,0,0,0-.31-.23,1.21,1.21,0,0,0-.5-.09,1.4,1.4,0,0,0-.56.11,1.1,1.1,0,0,0-.42.31A1.38,1.38,0,0,0,1,13a2.28,2.28,0,0,0-.1.66,1.74,1.74,0,0,0,.37,1.2,1.22,1.22,0,0,0,1,.43,1.92,1.92,0,0,0,.59-.09A2.88,2.88,0,0,0,3.43,15v-.72h-.7a.74.74,0,0,1-.38-.08.27.27,0,0,1-.13-.26.3.3,0,0,1,.1-.24.42.42,0,0,1,.3-.1h1a1.45,1.45,0,0,1,.32,0,.32.32,0,0,1,.21.15A.57.57,0,0,1,4.25,14.11Z"/><path class="cls-1" d="M7.15,14.18H6.33v1.27a.58.58,0,0,1-.13.41.42.42,0,0,1-.32.14.42.42,0,0,1-.33-.14.61.61,0,0,1-.13-.41V12a.58.58,0,0,1,.14-.43A.66.66,0,0,1,6,11.46H7.15a3.08,3.08,0,0,1,.79.08,1.16,1.16,0,0,1,.78.69,1.48,1.48,0,0,1,.1.57,1.25,1.25,0,0,1-.42,1A1.87,1.87,0,0,1,7.15,14.18Zm-.21-2H6.33V13.5h.61a2,2,0,0,0,.53-.06.71.71,0,0,0,.33-.22.7.7,0,0,0,.11-.4.69.69,0,0,0-.17-.48A1.17,1.17,0,0,0,6.94,12.14Z"/><path class="cls-1" d="M9.73,15.05l1-1.45-.84-1.3A1.45,1.45,0,0,1,9.71,12a.65.65,0,0,1-.06-.26.28.28,0,0,1,.11-.23.4.4,0,0,1,.28-.1.36.36,0,0,1,.29.11,2.36,2.36,0,0,1,.29.41L11.29,13,12,11.91a1.53,1.53,0,0,1,.15-.23.74.74,0,0,1,.12-.16.26.26,0,0,1,.13-.1.38.38,0,0,1,.16,0,.39.39,0,0,1,.28.1.34.34,0,0,1,.11.24,1.07,1.07,0,0,1-.24.55l-.88,1.32.95,1.45c.08.13.15.24.19.32a.79.79,0,0,1,0,.24.3.3,0,0,1,0,.19.29.29,0,0,1-.15.14.37.37,0,0,1-.21.06.35.35,0,0,1-.21-.06.47.47,0,0,1-.15-.13l-.2-.31-.78-1.23-.84,1.27a2.45,2.45,0,0,1-.14.21.94.94,0,0,1-.09.12.42.42,0,0,1-.14.09.38.38,0,0,1-.19,0,.36.36,0,0,1-.38-.4A1.06,1.06,0,0,1,9.73,15.05Z"/><path class="cls-2" d="M13.65,15a1.09,1.09,0,0,0,1.17-1V4.5H12.47A1.65,1.65,0,0,1,10.71,3V1H4.24A1.1,1.1,0,0,0,3.06,2v8.58H1.88V2A2.21,2.21,0,0,1,4.24,0h6.47L16,4.5V14a2.2,2.2,0,0,1-2.35,2"/></svg>